<?xml version="1.0" encoding="UTF-8"?>
<svg xmlns="http://www.w3.org/2000/svg" xmlns:xlink="http://www.w3.org/1999/xlink" viewBox="0 0 32 32" width="32px" height="32px">
<g id="surface82862095">
<path style=" stroke:none;fill-rule:nonzero;fill:rgb(0%,0%,0%);fill-opacity:1;" d="M 9.101562 4.75 C 7.734375 4.75 6.625 5.859375 6.625 7.226562 C 6.625 8.59375 7.734375 9.726562 9.101562 9.726562 C 10.46875 9.726562 11.578125 8.59375 11.578125 7.226562 C 11.578125 5.859375 10.46875 4.75 9.101562 4.75 Z M 21.1875 11.3125 C 19.109375 11.3125 17.917969 12.402344 17.347656 13.480469 L 17.289062 13.480469 L 17.289062 11.605469 L 13.1875 11.605469 L 13.1875 25.375 L 17.460938 25.375 L 17.460938 18.558594 C 17.460938 16.761719 17.59375 15.027344 19.816406 15.027344 C 22.007812 15.027344 22.039062 17.074219 22.039062 18.671875 L 22.039062 25.375 L 26.3125 25.375 L 26.3125 17.8125 C 26.3125 14.109375 25.515625 11.3125 21.1875 11.3125 Z M 6.964844 11.605469 L 6.964844 25.375 L 11.242188 25.375 L 11.242188 11.605469 Z M 6.964844 11.605469 "/>
</g>
</svg>
